<svg width="111" height="53" fill="none" xmlns="http://www.w3.org/2000/svg"><path d="M16.909 52.24c10.86 0 16.909-6.268 16.909-18.148V0h-10.35v34.821c0 5.175-1.895 8.09-6.56 8.09-4.59 0-6.559-2.478-6.559-8.454H0C0 46.337 6.34 52.24 16.909 52.24ZM36.939 51.137h16.398c8.236 0 16.108-5.394 16.108-15.524 0-6.268-2.624-10.714-7.289-12.828v-.291c2.624-1.458 5.394-4.665 5.394-9.84C67.55 4.347 62.01 0 52.973 0H36.94v51.137Zm10.35-32.506V9.156h5.32c2.623 0 4.591 1.312 4.591 4.737 0 3.572-1.968 4.738-4.591 4.738h-5.32Zm0 23.468V27.085h5.174c4.008 0 6.632 2.405 6.632 7.507S56.472 42.1 52.463 42.1h-5.175ZM87.116 51.544c9.839 0 15.67-6.41 15.67-14.865 0-7.871-4.009-10.951-13.265-15.106-6.487-2.915-8.017-4.591-8.017-8.09 0-3.06 2.26-5.028 5.539-5.028 3.936 0 5.685 2.259 5.685 5.466h9.693C102.348 5.758 97.392 0 87.043 0c-8.455 0-15.16 4.3-15.16 13.774 0 6.851 4.883 11.243 12.026 14.377 6.56 2.842 9.256 4.81 9.256 8.527 0 3.863-2.697 5.685-6.05 5.685-4.518 0-6.486-3.061-6.85-7.215h-9.548c.583 10.495 6.633 16.395 16.399 16.395ZM106.826 0c-2.321 0-4.184 1.703-4.184 4.196 0 2.47 1.863 4.162 4.184 4.162 2.31 0 4.174-1.691 4.174-4.162C111 1.703 109.136 0 106.826 0Zm0 7.59c-1.874 0-3.325-1.38-3.325-3.394 0-2.048 1.451-3.417 3.325-3.417 1.909 0 3.326 1.369 3.326 3.417 0 2.014-1.417 3.394-3.326 3.394Zm1.105-2.793c-.156.612-.614.835-1.116.835-.658 0-1.138-.512-1.138-1.525 0-1.002.491-1.492 1.138-1.492.547 0 .96.346 1.094.947l.926-.256c-.212-.846-.915-1.48-1.986-1.48-1.328 0-2.176.879-2.176 2.28 0 1.414.77 2.316 2.142 2.316 1.105 0 1.808-.623 2.054-1.391l-.938-.234Z" fill="#FFFFFF"/></svg>